<?xml version="1.0" encoding="utf-8"?>
<!-- Generator: Adobe Illustrator 24.2.3, SVG Export Plug-In . SVG Version: 6.00 Build 0)  -->
<svg version="1.1" id="Layer_1" xmlns="http://www.w3.org/2000/svg" xmlns:xlink="http://www.w3.org/1999/xlink" x="0px" y="0px"
	 viewBox="0 0 325.4 122.8" style="enable-background:new 0 0 325.4 122.8;" xml:space="preserve">
<style type="text/css">
	.st0{fill:#1E1E1C;}
</style>
<g>
	<path class="st0" d="M21.9,106.6h7.9L32,94.8h10.7l2.3,11.8h7.9L40.7,51.7h-6.6L21.9,106.6z M37.5,67.5l3.8,19.9h-7.9l3.8-19.9
		H37.5z"/>
	<polygon class="st0" points="89.9,106.6 89.9,51.7 82.1,51.7 82.1,75.2 72.4,75.2 72.4,51.7 64.5,51.7 64.5,106.6 72.4,106.6 
		72.4,82.2 82.1,82.2 82.1,106.6 	"/>
	<polygon class="st0" points="131.3,106.6 131.3,51.7 123.4,51.7 113.1,87.4 112.9,87.4 112.9,51.7 105.1,51.7 105.1,106.6 
		112.9,106.6 123.3,71 123.4,71 123.4,106.6 	"/>
	<path class="st0" d="M150.2,104.3c1.2,1,2.6,1.8,4.2,2.2c1.5,0.4,3.1,0.6,4.6,0.6c1.8,0,3.4-0.4,4.9-1c1.5-0.7,2.8-1.6,4-2.8
		s2-2.5,2.7-4.1s1-3.1,1-4.8V91h-7.9v2.7c0,1.1-0.1,2-0.5,2.7c-0.3,0.7-0.7,1.3-1.2,1.7c-0.5,0.4-1.1,0.7-1.7,0.9s-1.1,0.3-1.7,0.3
		c-1.8,0-3.1-0.5-3.7-1.6s-1-2.4-1-4V65.5c0-1.8,0.3-3.4,1-4.6s1.9-1.8,3.9-1.8c1.5,0,2.7,0.6,3.6,1.7c0.9,1.1,1.3,2.5,1.3,4v2.6
		h7.9v-3.1c0-1.9-0.3-3.7-1-5.3c-0.6-1.6-1.5-3-2.7-4.2c-2.3-2.4-5.3-3.6-9-3.6c-1.9,0-3.6,0.3-5.2,1c-1.6,0.6-2.9,1.5-4.1,2.7
		c-1.1,1.1-2,2.5-2.6,4s-0.9,3.2-0.9,5v30.2c0,2.5,0.4,4.6,1.2,6.2C147.9,101.9,148.9,103.3,150.2,104.3z"/>
	<polygon class="st0" points="189.9,106.6 197.7,106.6 197.7,59.1 206.8,59.1 206.8,51.7 180.8,51.7 180.8,59.1 189.9,59.1 	"/>
	<path class="st0" d="M225.9,85.2h4c2.9,0,5.3-0.5,7.1-1.5s3.2-2.4,4.3-4.2c0.9-1.5,1.5-3.1,1.8-4.8s0.4-3.8,0.4-6.2
		c0-3.3-0.3-5.9-0.8-7.8c-0.5-1.9-1.4-3.6-2.8-5.1s-2.8-2.4-4.5-3c-1.6-0.6-3.5-0.8-5.7-0.8H218v54.9h7.9L225.9,85.2L225.9,85.2z
		 M225.9,59.1h4.1c1.5,0,2.7,0.2,3.5,0.7c0.8,0.5,1.4,1.1,1.9,2s0.6,1.9,0.7,3c0,1.2,0.1,2.4,0.1,3.7c0,1.4,0,2.7-0.1,3.8
		s-0.3,2.1-0.7,2.8c-0.4,0.8-1,1.5-1.9,1.9c-0.9,0.5-2.1,0.7-3.7,0.7h-3.8L225.9,59.1L225.9,59.1z"/>
	<path class="st0" d="M260.9,103.7c1.2,1.1,2.6,2,4.2,2.5s3.1,0.9,4.7,0.9s3.2-0.3,4.7-0.9c1.6-0.6,3-1.4,4.3-2.5
		c1.2-1.1,2.2-2.4,3-4.1c0.8-1.6,1.2-3.6,1.2-5.9v-29c0-2.2-0.4-4.2-1.2-5.9c-0.8-1.7-1.8-3.1-3-4.2c-1.3-1.1-2.7-1.9-4.3-2.5
		s-3.1-0.8-4.7-0.8s-3.2,0.3-4.7,0.8c-1.6,0.6-3,1.4-4.2,2.5c-1.3,1.1-2.3,2.5-3.1,4.2s-1.2,3.7-1.2,5.9v29c0,2.3,0.4,4.3,1.2,5.9
		C258.6,101.2,259.6,102.6,260.9,103.7z M264.5,64.7c0-1.9,0.5-3.3,1.6-4.2c1-0.9,2.3-1.3,3.7-1.3s2.7,0.4,3.7,1.3s1.6,2.3,1.6,4.2
		v29c0,1.9-0.5,3.3-1.6,4.2s-2.3,1.4-3.7,1.4s-2.7-0.4-3.7-1.4c-1-0.9-1.6-2.3-1.6-4.2V64.7z"/>
	<polygon class="st0" points="315.8,71 316,71 316,106.6 323.9,106.6 323.9,51.7 316.1,51.7 316.1,43.4 305.5,43.4 305.5,51.7 
		316,51.7 305.7,87.4 305.5,87.4 305.5,51.7 297.6,51.7 297.6,106.6 305.5,106.6 	"/>
	<polygon class="st0" points="7.1,115.7 7.1,56.8 73.6,8.5 132.2,43.1 146,43.1 73.3,0 40.7,23.6 40.7,13.4 32.5,13.4 32.5,29.6 
		0,53.2 0,122.8 325.4,122.8 325.4,115.7 	"/>
</g>
</svg>
